<?xml version="1.0" encoding="utf-8"?>
<svg xmlns="http://www.w3.org/2000/svg">
<symbol id="add" viewBox="0 0 24 24">
  <path stroke-linecap="round" stroke-linejoin="round" d="M12 4.5v15m7.5-7.5h-15"/>

</symbol>
<symbol id="arrow-down" viewBox="0 0 24 24">
  <path stroke-linecap="round" stroke-linejoin="round" d="M19.5 13.5 12 21m0 0-7.5-7.5M12 21V3"/>

</symbol>
<symbol id="bars" viewBox="0 0 24 24">
  <path stroke-linecap="round" stroke-linejoin="round" d="M3.75 6.75h16.5M3.75 12h16.5M12 17.25h8.25"/>

</symbol>
<symbol id="bubble" viewBox="0 0 24 24">
  <path stroke-linecap="round" stroke-linejoin="round" d="M8.625 12a.375.375 0 1 1-.75 0 .375.375 0 0 1 .75 0zm0 0H8.25m4.125 0a.375.375 0 1 1-.75 0 .375.375 0 0 1 .75 0zm0 0H12m4.125 0a.375.375 0 1 1-.75 0 .375.375 0 0 1 .75 0zm0 0h-.375M21 12c0 4.556-4.03 8.25-9 8.25a9.764 9.764 0 0 1-2.555-.337A5.972 5.972 0 0 1 5.41 20.97a5.969 5.969 0 0 1-.474-.065 4.48 4.48 0 0 0 .978-2.025c.09-.457-.133-.901-.467-1.226C3.93 16.178 3 14.189 3 12c0-4.556 4.03-8.25 9-8.25s9 3.694 9 8.25z"/>

</symbol>
<symbol id="build-mlp" viewBox="0 0 24 24">
  <path stroke="none" d="M0 0h24v24H0z"/>
  <path d="m13 10 7.383 7.418c.823.82.823 2.148 0 2.967a2.11 2.11 0 0 1-2.976 0L10 13M6 9l4 4m3-3L9 6M3 21h7"/>
  <path d="m6.793 15.793-3.586-3.586a1 1 0 0 1 0-1.414L5.5 8.5 6 9l3-3-.5-.5 2.293-2.293a1 1 0 0 1 1.414 0l3.586 3.586a1 1 0 0 1 0 1.414L13.5 10.5 13 10l-3 3 .5.5-2.293 2.293a1 1 0 0 1-1.414 0z"/>

</symbol>
<symbol id="check-success" viewBox="0 0 24 24">
  <path stroke-linecap="round" stroke-linejoin="round" d="M9 12.75 11.25 15 15 9.75M21 12a9 9 0 1 1-18 0 9 9 0 0 1 18 0z"/>

</symbol>
<symbol id="check" viewBox="0 0 24 24">
  <path stroke-linecap="round" stroke-linejoin="round" d="m4.5 12.75 6 6 9-13.5"/>

</symbol>
<symbol id="close" viewBox="0 0 24 24">
  <path stroke-linecap="round" stroke-linejoin="round" d="M6 18 18 6M6 6l12 12"/>

</symbol>
<symbol id="date" viewBox="0 0 24 24">
  <path stroke-linecap="round" stroke-linejoin="round" d="M6.75 3v2.25M17.25 3v2.25M3 18.75V7.5a2.25 2.25 0 0 1 2.25-2.25h13.5A2.25 2.25 0 0 1 21 7.5v11.25m-18 0A2.25 2.25 0 0 0 5.25 21h13.5A2.25 2.25 0 0 0 21 18.75m-18 0v-7.5A2.25 2.25 0 0 1 5.25 9h13.5A2.25 2.25 0 0 1 21 11.25v7.5m-9-6h.008v.008H12v-.008zM12 15h.008v.008H12V15zm0 2.25h.008v.008H12v-.008zM9.75 15h.008v.008H9.75V15zm0 2.25h.008v.008H9.75v-.008zM7.5 15h.008v.008H7.5V15zm0 2.25h.008v.008H7.5v-.008zm6.75-4.5h.008v.008h-.008v-.008zm0 2.25h.008v.008h-.008V15zm0 2.25h.008v.008h-.008v-.008zm2.25-4.5h.008v.008H16.5v-.008zm0 2.25h.008v.008H16.5V15z"/>

</symbol>
<symbol id="delete" viewBox="0 0 24 24">
  <path stroke-linecap="round" stroke-linejoin="round" d="m14.74 9-.346 9m-4.788 0L9.26 9m9.968-3.21c.342.052.682.107 1.022.166m-1.022-.165L18.16 19.673a2.25 2.25 0 0 1-2.244 2.077H8.084a2.25 2.25 0 0 1-2.244-2.077L4.772 5.79m14.456 0a48.108 48.108 0 0 0-3.478-.397m-12 .562c.34-.059.68-.114 1.022-.165m0 0a48.11 48.11 0 0 1 3.478-.397m7.5 0v-.916c0-1.18-.91-2.164-2.09-2.201a51.964 51.964 0 0 0-3.32 0c-1.18.037-2.09 1.022-2.09 2.201v.916m7.5 0a48.667 48.667 0 0 0-7.5 0"/>

</symbol>
<symbol id="down" viewBox="0 0 24 24">
  <path stroke-linecap="round" stroke-linejoin="round" d="m19.5 8.25-7.5 7.5-7.5-7.5"/>

</symbol>
<symbol id="edit" viewBox="0 0 24 24">
  <path stroke-linecap="round" stroke-linejoin="round" d="m16.862 4.487 1.687-1.688a1.875 1.875 0 1 1 2.652 2.652L10.582 16.07a4.5 4.5 0 0 1-1.897 1.13L6 18l.8-2.685a4.5 4.5 0 0 1 1.13-1.897l8.932-8.931zm0 0L19.5 7.125M18 14v4.75A2.25 2.25 0 0 1 15.75 21H5.25A2.25 2.25 0 0 1 3 18.75V8.25A2.25 2.25 0 0 1 5.25 6H10"/>

</symbol>
<symbol id="email" viewBox="0 0 24 24">
  <path stroke-linecap="round" d="M16.5 12a4.5 4.5 0 1 1-9 0 4.5 4.5 0 0 1 9 0zm0 0c0 1.657 1.007 3 2.25 3S21 13.657 21 12a9 9 0 1 0-2.636 6.364M16.5 12V8.25"/>

</symbol>
<symbol id="excel" viewBox="0 0 20 24">
  <path fill="currentColor" d="M2.7 0A2.714 2.714 0 0 0 0 2.7v18.6A2.714 2.714 0 0 0 2.7 24h13.8a2.714 2.714 0 0 0 2.7-2.7V8.7a.9.9 0 0 0-.264-.636l-.009-.009L11.136.264A.9.9 0 0 0 10.5 0H2.7Zm0 1.8h6.9v5.1a2.714 2.714 0 0 0 2.7 2.7h5.1v11.7a.885.885 0 0 1-.9.9H2.7a.885.885 0 0 1-.9-.9V2.7a.886.886 0 0 1 .9-.9Zm8.7 1.273L16.127 7.8H12.3a.886.886 0 0 1-.9-.9V3.073ZM7.523 11.4a.9.9 0 0 0-.783 1.383L8.534 15.6l-1.793 2.817a.9.9 0 0 0 1.519.967l1.34-2.107 1.341 2.106a.9.9 0 1 0 1.52-.967L10.668 15.6l1.792-2.816a.9.9 0 1 0-1.519-.967L9.6 13.923l-1.341-2.107a.9.9 0 0 0-.736-.416Z"/>

</symbol>
<symbol id="exclamation" viewBox="0 0 24 24">
  <path stroke-linecap="round" stroke-linejoin="round" d="M12 9v3.75m9-.75a9 9 0 1 1-18 0 9 9 0 0 1 18 0zm-9 3.75h.008v.008H12v-.008z"/>

</symbol>
<symbol id="help" viewBox="0 0 24 24">
  <path stroke-linecap="round" stroke-linejoin="round" d="M9.879 7.519c1.171-1.025 3.071-1.025 4.242 0 1.172 1.025 1.172 2.687 0 3.712-.203.179-.43.326-.67.442-.745.361-1.45.999-1.45 1.827v.75M21 12a9 9 0 1 1-18 0 9 9 0 0 1 18 0zm-9 5.25h.008v.008H12v-.008z"/>

</symbol>
<symbol id="logout" viewBox="0 0 24 24">
  <path stroke-linecap="round" stroke-linejoin="round" d="M15.75 9V5.25A2.25 2.25 0 0 0 13.5 3h-6a2.25 2.25 0 0 0-2.25 2.25v13.5A2.25 2.25 0 0 0 7.5 21h6a2.25 2.25 0 0 0 2.25-2.25V15M12 9l-3 3m0 0 3 3m-3-3h12.75"/>

</symbol>
<symbol id="moon" viewBox="0 0 24 24">
  <path stroke-linecap="round" stroke-linejoin="round" d="M21.752 15.002A9.718 9.718 0 0 1 18 15.75 9.75 9.75 0 0 1 8.25 6c0-1.33.266-2.597.748-3.752A9.753 9.753 0 0 0 3 11.25 9.75 9.75 0 0 0 12.75 21a9.753 9.753 0 0 0 9.002-5.998z"/>

</symbol>
<symbol id="new" viewBox="0 0 24 24">
  <path stroke-linecap="round" stroke-linejoin="round" d="M12 9v6m3-3H9m12 0a9 9 0 1 1-18 0 9 9 0 0 1 18 0z"/>

</symbol>
<symbol id="password" viewBox="0 0 24 24">
  <path stroke-linecap="round" stroke-linejoin="round" d="M3.98 8.223A10.477 10.477 0 0 0 1.934 12c1.292 4.338 5.31 7.5 10.066 7.5.993 0 1.953-.138 2.863-.395M6.228 6.228A10.45 10.45 0 0 1 12 4.5c4.756 0 8.773 3.162 10.065 7.498a10.523 10.523 0 0 1-4.293 5.774M6.228 6.228 3 3m3.228 3.228 3.65 3.65m7.894 7.894L21 21m-3.228-3.228-3.65-3.65m0 0a3 3 0 1 0-4.243-4.243m4.242 4.242L9.88 9.88"/>

</symbol>
<symbol id="plus" viewBox="0 0 24 24">
  <path stroke-linecap="round" stroke-linejoin="round" d="M12 9v6m3-3H9m12 0a9 9 0 1 1-18 0 9 9 0 0 1 18 0z"/>

</symbol>
<symbol id="search" viewBox="0 0 24 24">
  <path stroke-linecap="round" stroke-linejoin="round" d="m21 21-5.197-5.197m0 0A7.5 7.5 0 1 0 5.196 5.196a7.5 7.5 0 0 0 10.607 10.607z"/>

</symbol>
<symbol id="setting" viewBox="0 0 24 24">
  <path stroke-linecap="round" stroke-linejoin="round" d="M4.5 12a7.5 7.5 0 0 0 15 0m-15 0a7.5 7.5 0 1 1 15 0m-15 0H3m16.5 0H21m-1.5 0H12m-8.457 3.077 1.41-.513m14.095-5.13 1.41-.513M5.106 17.785l1.15-.964m11.49-9.642 1.149-.964M7.501 19.795l.75-1.3m7.5-12.99.75-1.3m-6.063 16.658.26-1.477m2.605-14.772.26-1.477m0 17.726-.26-1.477M10.698 4.614l-.26-1.477M16.5 19.794l-.75-1.299M7.5 4.205 12 12m6.894 5.785-1.149-.964M6.256 7.178l-1.15-.964m15.352 8.864-1.41-.513M4.954 9.435l-1.41-.514M12.002 12l-3.75 6.495"/>

</symbol>
<symbol id="sun" viewBox="0 0 24 24">
  <path stroke-linecap="round" stroke-linejoin="round" d="M12 3v2.25m6.364.386-1.591 1.591M21 12h-2.25m-.386 6.364-1.591-1.591M12 18.75V21m-4.773-4.227-1.591 1.591M5.25 12H3m4.227-4.773L5.636 5.636M15.75 12a3.75 3.75 0 1 1-7.5 0 3.75 3.75 0 0 1 7.5 0z"/>

</symbol>
<symbol id="warning" viewBox="0 0 24 24">
  <path stroke-linecap="round" stroke-linejoin="round" d="M12 9v3.75m-9.303 3.376c-.866 1.5.217 3.374 1.948 3.374h14.71c1.73 0 2.813-1.874 1.948-3.374L13.949 3.378c-.866-1.5-3.032-1.5-3.898 0L2.697 16.126zM12 15.75h.007v.008H12v-.008z"/>

</symbol>
<symbol id="wrench" viewBox="0 0 24 24">
  <path stroke-linecap="round" stroke-linejoin="round" d="M11.42 15.17 17.25 21A2.652 2.652 0 0 0 21 17.25l-5.877-5.877M11.42 15.17l2.496-3.03c.317-.384.74-.626 1.208-.766M11.42 15.17l-4.655 5.653a2.548 2.548 0 1 1-3.586-3.586l6.837-5.63m5.108-.233c.55-.164 1.163-.188 1.743-.14a4.5 4.5 0 0 0 4.486-6.336l-3.276 3.277a3.004 3.004 0 0 1-2.25-2.25l3.276-3.276a4.5 4.5 0 0 0-6.336 4.486c.091 1.076-.071 2.264-.904 2.95l-.102.085m-1.745 1.437L5.909 7.5H4.5L2.25 3.75l1.5-1.5L7.5 4.5v1.409l4.26 4.26m-1.745 1.437 1.745-1.437m6.615 8.206L15.75 15.75M4.867 19.125h.008v.008h-.008v-.008z"/>

</symbol></svg>